<svg width="182" height="186" viewBox="0 0 182 186" fill="none" xmlns="http://www.w3.org/2000/svg">
<path d="M79.6756 8.71906L72.1585 12.996C68.1223 15.2925 63.5583 16.5 58.9144 16.5C47.333 16.5 37.0112 24.1047 33.4089 35.1116C31.5394 40.824 27.8006 45.8301 22.8257 49.2029L15.569 54.1227C7.17637 59.8126 4.16344 70.7583 8.46201 79.9416C10.7313 84.7896 11.0272 90.33 9.28704 95.3922L7.16205 101.574C3.39821 112.523 6.27115 124.661 14.5439 132.762L21.8124 139.879C23.9258 141.948 25.7216 144.319 27.1415 146.914L32.5446 156.788C36.9387 164.819 44.7589 170.404 53.7807 171.954L68.0532 174.408C70.3433 174.801 72.5799 175.46 74.7181 176.369L79.2283 178.289C89.0015 182.447 100.245 181.129 108.791 174.821L110.824 173.32C114.236 170.802 118.143 169.036 122.287 168.138L131.801 166.076C140.769 164.133 148.354 158.193 152.391 149.953L155.228 144.159C157.056 140.427 159.64 137.116 162.815 134.434L166.217 131.561C174.96 124.178 178.741 112.465 175.966 101.364L174.351 94.9025C173.143 90.0702 173.354 84.992 174.959 80.2767C178.317 70.4137 175.436 59.4989 167.649 52.5769L162.928 48.3806C159.681 45.4946 157.1 41.938 155.363 37.9566L153.851 34.4916C149.082 23.564 138.293 16.5 126.37 16.5H125.076C119.196 16.5 113.487 14.5254 108.864 10.893C100.48 4.30545 88.943 3.44621 79.6756 8.71906Z" stroke="black" stroke-width="10"/>
<rect width="15.8658" height="6.61758" rx="3.30879" transform="matrix(0.853386 -0.521279 0.510374 0.859952 47.4991 36.9913)" fill="black"/>
<rect width="15.8075" height="6.64146" rx="3.32073" transform="matrix(0.993099 -0.117276 0.11399 0.993482 70.9951 24.8762)" fill="black"/>
<rect width="15.8085" height="6.64107" rx="3.32053" transform="matrix(0.99093 0.134376 -0.130626 0.991432 95.0891 23)" fill="black"/>
<rect width="15.8506" height="6.62382" rx="3.31191" transform="matrix(0.891745 0.452538 -0.442231 0.896901 120.42 27.5998)" fill="black"/>
<rect width="15.9159" height="6.59686" rx="3.29843" transform="matrix(0.712892 0.701273 -0.690939 0.722913 139.811 42.6963)" fill="black"/>
<rect width="15.9943" height="6.56427" rx="3.28214" transform="matrix(0.4111 0.91159 -0.907056 0.421009 151.196 58.2784)" fill="black"/>
<rect width="16.0333" height="6.54791" rx="3.27395" transform="matrix(-0.0422413 0.999107 -0.999055 -0.0434734 159.815 82.9199)" fill="black"/>
<rect width="16.0058" height="6.55942" rx="3.27971" transform="matrix(-0.345266 0.938505 -0.935205 -0.354106 157.501 107.754)" fill="black"/>
<rect width="15.9553" height="6.58051" rx="3.29026" transform="matrix(-0.580536 0.814235 -0.806218 -0.591619 148.018 129.144)" fill="black"/>
<rect width="15.8539" height="6.62244" rx="3.31122" transform="matrix(-0.88339 0.468638 -0.458157 -0.888871 133.791 146.041)" fill="black"/>
<rect width="15.8044" height="6.64272" rx="3.32136" transform="matrix(-0.999971 0.0075568 -0.00734223 -0.999973 110.344 160.268)" fill="black"/>
<rect width="15.8075" height="6.64148" rx="3.32074" transform="matrix(-0.993218 -0.11627 0.113011 -0.993594 87.3361 161.225)" fill="black"/>
<rect width="15.8783" height="6.61243" rx="3.30621" transform="matrix(-0.820503 -0.571643 0.560562 -0.828112 64.2866 156.736)" fill="black"/>
<rect width="15.9433" height="6.5855" rx="3.29275" transform="matrix(-0.623682 -0.781678 0.772816 -0.63463 46.1646 142.617)" fill="black"/>
<rect width="16.0125" height="6.55665" rx="3.27832" transform="matrix(-0.301369 -0.953508 0.95095 -0.309344 29.7687 123.248)" fill="black"/>
<rect width="16.0328" height="6.54813" rx="3.27406" transform="matrix(0.0632588 -0.997997 0.997879 0.0650998 22 98.5505)" fill="black"/>
<rect width="16.0082" height="6.55845" rx="3.27923" transform="matrix(0.330604 -0.94377 0.940726 0.339168 23.9261 73.8871)" fill="black"/>
<rect width="15.939" height="6.58731" rx="3.29366" transform="matrix(0.638698 -0.769457 0.760316 0.649554 33.418 53.7748)" fill="black"/>
<path d="M93.5 64.2971C81.2188 64.2971 70.8281 73.377 67.2969 85.895C72.5469 82.8978 78.4688 81.2228 84.75 81.2228H98.5C99.875 81.2228 101 82.4922 101 84.0438C101 85.5953 99.875 86.8647 98.5 86.8647H84.75C82.1562 86.8647 79.6406 87.1997 77.2188 87.8168C73.1719 88.857 69.4062 90.7083 66.0625 93.2295C56.9844 100.053 51 111.707 51 124.948V127.769C51 130.113 52.6719 132 54.75 132C56.8281 132 58.5 130.113 58.5 127.769V124.948C58.5 116.361 61.7344 108.639 66.9062 103.226C70 116.538 80.7344 126.358 93.5 126.358H93.6562C114.297 126.235 131 103.279 131 74.9815C131 67.4707 129.828 60.3301 127.703 53.8948C127.297 52.6783 125.719 52.7312 125.172 53.8772C122.234 60.0833 116.422 64.2971 109.75 64.2971H93.5Z" fill="black"/>
</svg>

